<svg width="88" height="14" viewBox="0 0 88 14" fill="none" xmlns="http://www.w3.org/2000/svg">
<path d="M6.462 13.1415C4.734 13.1415 3.384 12.7215 2.412 11.8815C1.44 11.0295 0.924 9.82355 0.864 8.26355C0.852 7.91555 0.846 7.36355 0.846 6.60755C0.846 5.85155 0.852 5.29955 0.864 4.95155C0.924 3.42755 1.446 2.25155 2.43 1.42355C3.426 0.595547 4.77 0.181547 6.462 0.181547C7.602 0.181547 8.592 0.367547 9.432 0.739547C10.284 1.11155 10.932 1.58555 11.376 2.16155C11.832 2.73755 12.072 3.33155 12.096 3.94355C12.096 4.05155 12.054 4.14155 11.97 4.21355C11.898 4.28555 11.808 4.32155 11.7 4.32155H9.072C8.952 4.32155 8.856 4.30355 8.784 4.26755C8.712 4.23155 8.652 4.16555 8.604 4.06955C8.448 3.72155 8.202 3.42155 7.866 3.16955C7.53 2.90555 7.062 2.77355 6.462 2.77355C5.034 2.77355 4.284 3.52955 4.212 5.04155C4.2 5.37755 4.194 5.89955 4.194 6.60755C4.194 7.30355 4.2 7.82555 4.212 8.17355C4.284 9.75755 5.052 10.5495 6.516 10.5495C7.224 10.5495 7.788 10.3695 8.208 10.0095C8.64 9.63755 8.856 9.07355 8.856 8.31755V7.97555H7.164C7.032 7.97555 6.924 7.93355 6.84 7.84955C6.756 7.75355 6.714 7.63955 6.714 7.50755V6.17555C6.714 6.04355 6.756 5.93555 6.84 5.85155C6.924 5.75555 7.032 5.70755 7.164 5.70755H11.7C11.832 5.70755 11.94 5.75555 12.024 5.85155C12.108 5.93555 12.15 6.04355 12.15 6.17555V8.22755C12.15 9.24755 11.916 10.1295 11.448 10.8735C10.98 11.6055 10.314 12.1695 9.45 12.5655C8.598 12.9495 7.602 13.1415 6.462 13.1415ZM18.4451 13.1415C16.9571 13.1415 15.8111 12.7875 15.0071 12.0795C14.2031 11.3715 13.7651 10.3755 13.6931 9.09155C13.6811 8.93555 13.6751 8.66555 13.6751 8.28155C13.6751 7.89755 13.6811 7.62755 13.6931 7.47155C13.7651 6.19955 14.2151 5.20955 15.0431 4.50155C15.8711 3.78155 17.0051 3.42155 18.4451 3.42155C19.8971 3.42155 21.0371 3.78155 21.8651 4.50155C22.6931 5.20955 23.1431 6.19955 23.2151 7.47155C23.2271 7.62755 23.2331 7.89755 23.2331 8.28155C23.2331 8.66555 23.2271 8.93555 23.2151 9.09155C23.1431 10.3755 22.7051 11.3715 21.9011 12.0795C21.0971 12.7875 19.9451 13.1415 18.4451 13.1415ZM18.4451 10.9455C18.9731 10.9455 19.3631 10.7895 19.6151 10.4775C19.8671 10.1535 20.0111 9.66155 20.0471 9.00155C20.0591 8.88155 20.0651 8.64155 20.0651 8.28155C20.0651 7.92155 20.0591 7.68155 20.0471 7.56155C20.0111 6.91355 19.8611 6.42755 19.5971 6.10355C19.3451 5.77955 18.9611 5.61755 18.4451 5.61755C17.4491 5.61755 16.9211 6.26555 16.8611 7.56155L16.8431 8.28155L16.8611 9.00155C16.8851 9.66155 17.0231 10.1535 17.2751 10.4775C17.5391 10.7895 17.9291 10.9455 18.4451 10.9455Z" fill="black"/>
<path d="M30.385 13.1415C28.669 13.1415 27.325 12.7275 26.353 11.8995C25.393 11.0595 24.883 9.84755 24.823 8.26355C24.811 7.93955 24.805 7.41155 24.805 6.67955C24.805 5.93555 24.811 5.39555 24.823 5.05955C24.883 3.49955 25.405 2.29955 26.389 1.45955C27.373 0.607547 28.705 0.181547 30.385 0.181547C31.441 0.181547 32.389 0.361547 33.229 0.721548C34.069 1.06955 34.729 1.57355 35.209 2.23355C35.701 2.88155 35.953 3.64355 35.965 4.51955V4.55555C35.965 4.65155 35.923 4.73555 35.839 4.80755C35.767 4.86755 35.683 4.89755 35.587 4.89755H33.157C33.001 4.89755 32.881 4.86755 32.797 4.80755C32.713 4.73555 32.641 4.60955 32.581 4.42955C32.413 3.81755 32.149 3.39155 31.789 3.15155C31.429 2.89955 30.955 2.77355 30.367 2.77355C28.951 2.77355 28.219 3.56555 28.171 5.14955C28.159 5.47355 28.153 5.97155 28.153 6.64355C28.153 7.31555 28.159 7.82555 28.171 8.17355C28.219 9.75755 28.951 10.5495 30.367 10.5495C30.955 10.5495 31.435 10.4235 31.807 10.1715C32.179 9.90755 32.437 9.48155 32.581 8.89355C32.629 8.71355 32.695 8.59355 32.779 8.53355C32.863 8.46155 32.989 8.42555 33.157 8.42555H35.587C35.695 8.42555 35.785 8.46155 35.857 8.53355C35.941 8.60555 35.977 8.69555 35.965 8.80355C35.953 9.67955 35.701 10.4475 35.209 11.1075C34.729 11.7555 34.069 12.2595 33.229 12.6195C32.389 12.9675 31.441 13.1415 30.385 13.1415ZM42.0877 13.1415C40.5997 13.1415 39.4537 12.7875 38.6497 12.0795C37.8457 11.3715 37.4077 10.3755 37.3357 9.09155C37.3237 8.93555 37.3177 8.66555 37.3177 8.28155C37.3177 7.89755 37.3237 7.62755 37.3357 7.47155C37.4077 6.19955 37.8577 5.20955 38.6857 4.50155C39.5137 3.78155 40.6477 3.42155 42.0877 3.42155C43.5397 3.42155 44.6797 3.78155 45.5077 4.50155C46.3357 5.20955 46.7857 6.19955 46.8577 7.47155C46.8697 7.62755 46.8757 7.89755 46.8757 8.28155C46.8757 8.66555 46.8697 8.93555 46.8577 9.09155C46.7857 10.3755 46.3477 11.3715 45.5437 12.0795C44.7397 12.7875 43.5877 13.1415 42.0877 13.1415ZM42.0877 10.9455C42.6157 10.9455 43.0057 10.7895 43.2577 10.4775C43.5097 10.1535 43.6537 9.66155 43.6897 9.00155C43.7017 8.88155 43.7077 8.64155 43.7077 8.28155C43.7077 7.92155 43.7017 7.68155 43.6897 7.56155C43.6537 6.91355 43.5037 6.42755 43.2397 6.10355C42.9877 5.77955 42.6037 5.61755 42.0877 5.61755C41.0917 5.61755 40.5637 6.26555 40.5037 7.56155L40.4857 8.28155L40.5037 9.00155C40.5277 9.66155 40.6657 10.1535 40.9177 10.4775C41.1817 10.7895 41.5717 10.9455 42.0877 10.9455ZM49.1136 12.9615C48.9816 12.9615 48.8736 12.9195 48.7896 12.8355C48.7056 12.7515 48.6636 12.6435 48.6636 12.5115V4.05155C48.6636 3.91955 48.7056 3.81155 48.7896 3.72755C48.8736 3.64355 48.9816 3.60155 49.1136 3.60155H51.1836C51.3156 3.60155 51.4236 3.64955 51.5076 3.74555C51.6036 3.82955 51.6516 3.93155 51.6516 4.05155V4.77155C52.3116 3.99155 53.1996 3.60155 54.3156 3.60155H55.1076C55.2396 3.60155 55.3476 3.64355 55.4316 3.72755C55.5156 3.81155 55.5576 3.91955 55.5576 4.05155V5.90555C55.5576 6.02555 55.5156 6.13355 55.4316 6.22955C55.3476 6.31355 55.2396 6.35555 55.1076 6.35555H53.3616C52.8696 6.35555 52.4856 6.49355 52.2096 6.76955C51.9456 7.03355 51.8136 7.41155 51.8136 7.90355V12.5115C51.8136 12.6435 51.7656 12.7515 51.6696 12.8355C51.5856 12.9195 51.4776 12.9615 51.3456 12.9615H49.1136ZM61.1775 13.1415C59.6895 13.1415 58.5435 12.7875 57.7395 12.0795C56.9355 11.3715 56.4975 10.3755 56.4255 9.09155C56.4135 8.93555 56.4075 8.66555 56.4075 8.28155C56.4075 7.89755 56.4135 7.62755 56.4255 7.47155C56.4975 6.19955 56.9475 5.20955 57.7755 4.50155C58.6035 3.78155 59.7375 3.42155 61.1775 3.42155C62.6295 3.42155 63.7695 3.78155 64.5975 4.50155C65.4255 5.20955 65.8755 6.19955 65.9475 7.47155C65.9595 7.62755 65.9655 7.89755 65.9655 8.28155C65.9655 8.66555 65.9595 8.93555 65.9475 9.09155C65.8755 10.3755 65.4375 11.3715 64.6335 12.0795C63.8295 12.7875 62.6775 13.1415 61.1775 13.1415ZM61.1775 10.9455C61.7055 10.9455 62.0955 10.7895 62.3475 10.4775C62.5995 10.1535 62.7435 9.66155 62.7795 9.00155C62.7915 8.88155 62.7975 8.64155 62.7975 8.28155C62.7975 7.92155 62.7915 7.68155 62.7795 7.56155C62.7435 6.91355 62.5935 6.42755 62.3295 6.10355C62.0775 5.77955 61.6935 5.61755 61.1775 5.61755C60.1815 5.61755 59.6535 6.26555 59.5935 7.56155L59.5755 8.28155L59.5935 9.00155C59.6175 9.66155 59.7555 10.1535 60.0075 10.4775C60.2715 10.7895 60.6615 10.9455 61.1775 10.9455ZM68.2034 12.9615C68.0714 12.9615 67.9634 12.9195 67.8794 12.8355C67.7954 12.7515 67.7534 12.6435 67.7534 12.5115V4.05155C67.7534 3.91955 67.7954 3.81155 67.8794 3.72755C67.9634 3.64355 68.0714 3.60155 68.2034 3.60155H70.2734C70.4054 3.60155 70.5134 3.64355 70.5974 3.72755C70.6934 3.81155 70.7414 3.91955 70.7414 4.05155V4.73555C71.0654 4.33955 71.4794 4.02155 71.9834 3.78155C72.4994 3.54155 73.0814 3.42155 73.7294 3.42155C74.7854 3.42155 75.6434 3.78155 76.3034 4.50155C76.9634 5.20955 77.2934 6.20555 77.2934 7.48955V12.5115C77.2934 12.6315 77.2514 12.7395 77.1674 12.8355C77.0834 12.9195 76.9754 12.9615 76.8434 12.9615H74.5754C74.4554 12.9615 74.3474 12.9195 74.2514 12.8355C74.1674 12.7395 74.1254 12.6315 74.1254 12.5115V7.59755C74.1254 7.03355 73.9874 6.60155 73.7114 6.30155C73.4354 5.98955 73.0394 5.83355 72.5234 5.83355C72.0194 5.83355 71.6234 5.98955 71.3354 6.30155C71.0474 6.60155 70.9034 7.03355 70.9034 7.59755V12.5115C70.9034 12.6315 70.8614 12.7395 70.7774 12.8355C70.6934 12.9195 70.5854 12.9615 70.4534 12.9615H68.2034ZM82.1278 13.1415C81.4918 13.1415 80.9098 13.0215 80.3818 12.7815C79.8658 12.5295 79.4578 12.1935 79.1578 11.7735C78.8698 11.3415 78.7258 10.8675 78.7258 10.3515C78.7258 9.52355 79.0618 8.85755 79.7338 8.35355C80.4178 7.84955 81.3538 7.50155 82.5418 7.30955L84.7918 6.96755V6.71555C84.7918 6.25955 84.6958 5.92355 84.5038 5.70755C84.3118 5.49155 83.9878 5.38355 83.5318 5.38355C83.2558 5.38355 83.0278 5.43155 82.8478 5.52755C82.6678 5.62355 82.4818 5.75555 82.2898 5.92355C82.1218 6.06755 81.9958 6.16355 81.9118 6.21155C81.8758 6.30755 81.8098 6.35555 81.7138 6.35555H79.7518C79.6318 6.35555 79.5298 6.31955 79.4458 6.24755C79.3738 6.16355 79.3438 6.06755 79.3558 5.95955C79.3678 5.63555 79.5238 5.27555 79.8238 4.87955C80.1358 4.48355 80.6038 4.14155 81.2278 3.85355C81.8638 3.56555 82.6438 3.42155 83.5678 3.42155C85.0438 3.42155 86.1358 3.75155 86.8438 4.41155C87.5518 5.05955 87.9058 5.93555 87.9058 7.03955V12.5115C87.9058 12.6315 87.8638 12.7395 87.7798 12.8355C87.6958 12.9195 87.5878 12.9615 87.4558 12.9615H85.3678C85.2478 12.9615 85.1398 12.9195 85.0438 12.8355C84.9598 12.7395 84.9178 12.6315 84.9178 12.5115V11.8815C84.6538 12.2535 84.2818 12.5595 83.8018 12.7995C83.3338 13.0275 82.7758 13.1415 82.1278 13.1415ZM82.9738 11.0895C83.5258 11.0895 83.9698 10.9095 84.3058 10.5495C84.6538 10.1895 84.8278 9.66155 84.8278 8.96555V8.71355L83.2978 8.98355C82.2178 9.17555 81.6778 9.55355 81.6778 10.1175C81.6778 10.4175 81.8038 10.6575 82.0558 10.8375C82.3078 11.0055 82.6138 11.0895 82.9738 11.0895Z" fill="#EC5863"/>
</svg>
